<svg xmlns="http://www.w3.org/2000/svg" width="200" height="40" viewBox="0,0,200,40"><path fill="#111" d="M27.08 35.20L27.06 35.18L24.82 35.23L24.91 35.31Q24.44 35.30 23.47 35.36L23.55 35.44L23.57 35.46Q22.45 35.37 21.96 35.37L22.00 35.42L21.98 35.40Q20.44 35.49 19.41 34.65L19.44 34.68L19.34 34.58Q20.22 33.56 21.86 31.43L21.70 31.27L21.74 31.31Q23.05 32.93 25.26 32.70L25.27 32.71L25.24 32.67Q26.25 32.66 26.90 32.01L26.75 31.86L26.70 31.82Q27.39 31.21 27.28 30.34L27.41 30.47L27.37 30.43Q27.21 25.78 27.29 21.21L27.26 21.18L27.21 21.13Q27.41 16.69 27.95 12.09L27.83 11.97L27.77 11.91Q29.89 11.90 32.02 10.87L31.93 10.78L31.99 10.84Q30.14 17.59 30.14 24.82L30.06 24.74L29.98 24.66Q30.05 28.28 30.51 31.78L30.49 31.76L30.53 31.80Q30.65 32.19 30.65 32.53L30.56 32.44L30.66 32.54Q30.67 33.12 30.44 33.65L30.29 33.51L30.47 33.69Q29.78 34.82 26.96 35.08ZM32.02 38.04L32.01 38.04L32.19 37.88L32.46 37.72L32.88 37.76L32.78 37.67Q33.09 37.40 33.16 37.29L33.15 37.28L33.27 37.39Q33.42 36.17 33.15 35.18L33.06 35.09L33.13 35.16Q31.73 29.31 32.00 22.95L32.14 23.10L32.01 22.96Q32.38 16.97 34.17 11.07L34.05 10.95L34.13 11.03Q33.28 11.71 32.02 12.43L31.89 12.29L31.95 12.36Q32.19 11.65 32.61 10.12L32.48 10.00L32.59 10.10Q30.08 11.44 27.42 11.75L27.29 11.62L27.30 11.63Q26.97 16.05 26.89 21.00L26.92 21.03L26.86 20.98Q26.84 26.93 26.92 30.36L26.98 30.41L27.00 30.44Q27.04 32.19 25.29 32.35L25.31 32.37L25.15 32.21Q23.59 32.48 21.92 30.84L21.85 30.77L21.90 30.82Q19.84 33.33 18.89 34.89L18.91 34.91L18.87 34.87Q19.53 35.53 20.55 35.76L20.53 35.73L20.61 35.81Q20.52 35.96 20.26 36.18L20.26 36.18L20.23 36.16Q21.53 36.96 23.51 37.23L23.56 37.28L23.58 37.30Q23.98 37.35 27.27 37.66L27.24 37.63L27.19 37.57Q30.49 37.89 31.86 37.89Z"/><path fill="#111" d="M50.87 14.32L50.93 14.38L50.91 14.35Q51.70 18.53 51.85 22.11L51.89 22.15L51.98 22.24Q53.01 22.24 54.07 22.24L53.98 22.15L56.36 22.32L56.22 22.18Q57.23 22.13 58.11 20.72L58.21 20.82L58.18 20.79Q59.01 19.72 59.12 18.54L59.10 18.51L59.05 18.46Q59.45 15.47 55.22 14.97L55.20 14.95L55.24 15.00Q53.53 14.92 50.90 14.35ZM51.91 24.91L51.86 24.86L51.95 24.95Q51.93 31.21 50.78 35.63L50.81 35.66L50.64 35.48Q49.22 35.93 46.90 36.99L46.93 37.03L46.89 36.99Q49.31 30.39 49.05 23.12L49.07 23.14L48.97 23.04Q48.76 15.74 45.98 9.31L45.96 9.30L46.03 9.36Q50.11 12.07 56.35 12.07L56.31 12.03L56.43 12.15Q62.40 12.06 62.55 15.53L62.51 15.49L62.57 15.55Q62.65 17.99 61.66 20.65L61.67 20.67L61.67 20.66Q61.28 21.80 60.33 23.02L60.22 22.90L60.35 23.03Q58.96 24.58 56.41 24.85L56.51 24.94L56.37 24.80Q54.11 24.83 51.87 24.87ZM58.01 27.13L58.08 27.20L58.03 27.15Q62.18 27.38 63.44 22.58L63.39 22.53L63.40 22.54Q64.47 19.01 64.31 16.99L64.28 16.96L64.35 17.03Q64.16 15.42 63.40 14.43L63.38 14.41L63.40 14.43Q63.08 14.12 62.59 13.89L62.48 13.79L62.64 13.94Q62.51 13.66 61.90 12.90L61.93 12.93L61.91 12.91Q60.41 11.64 56.45 11.64L56.34 11.53L56.51 11.70Q49.56 11.64 45.34 8.48L45.32 8.46L45.37 8.51Q48.45 15.51 48.71 22.97L48.81 23.07L48.81 23.06Q49.09 30.73 46.42 37.81L46.32 37.71L46.45 37.84Q47.50 37.18 48.49 36.80L48.51 36.82L48.15 37.97L48.04 37.87Q47.91 38.50 47.64 39.07L47.70 39.13L47.63 39.06Q49.99 37.95 52.88 37.42L52.91 37.45L52.89 37.43Q53.87 32.05 53.95 27.33L53.87 27.25L53.82 27.20Q54.93 27.14 55.92 27.14L55.96 27.17L56.02 27.23Q57.33 27.22 58.13 27.25ZM57.12 17.26L57.05 17.18L57.21 17.35Q57.56 17.20 58.55 17.43L58.51 17.39L58.52 17.40Q58.72 17.72 58.76 18.02L58.79 18.05L58.67 17.93Q58.89 18.38 58.81 18.64L58.67 18.50L58.66 18.49Q58.67 19.83 57.94 20.71L57.90 20.66L57.88 20.64Q57.29 21.69 56.26 21.88L56.23 21.85L56.37 21.99Q55.43 21.77 53.79 21.77L53.89 21.86L53.91 21.89Q53.89 19.62 53.66 17.26L53.69 17.29L55.43 17.36L55.28 17.20Q56.18 17.27 57.05 17.19Z"/><path fill="#444" d="M138.32 35.30L138.28 35.25L138.26 35.24Q134.75 35.31 133.12 34.78L133.22 34.88L133.13 34.79Q131.07 34.06 130.77 30.68L130.89 30.80L132.35 29.75L132.24 29.63Q133.11 29.25 133.87 28.75L133.73 28.62L133.87 28.75Q133.48 30.54 135.08 31.76L135.07 31.75L135.16 31.83Q136.36 32.77 138.50 32.58L138.55 32.64L138.53 32.61Q142.86 32.15 142.67 28.61L142.70 28.64L142.76 28.70Q142.58 26.42 139.95 25.20L139.93 25.18L139.90 25.15Q137.14 24.18 134.78 22.96L134.67 22.86L134.75 22.93Q132.20 21.60 131.21 16.92L131.19 16.90L131.11 16.82Q131.06 16.43 130.95 15.67L131.05 15.77L131.03 15.75Q130.95 14.98 131.02 14.41L130.91 14.30L130.90 14.28Q131.18 12.81 132.43 12.36L132.43 12.36L132.40 12.32Q134.69 11.34 138.69 11.53L138.79 11.63L138.81 11.65Q140.63 11.76 141.43 11.83L141.44 11.84L141.34 11.75Q142.82 11.94 143.89 12.39L143.98 12.48L143.91 12.41Q146.11 12.98 146.34 15.45L146.27 15.38L146.20 15.31Q145.35 16.21 143.14 17.54L143.12 17.53L143.01 17.41Q142.65 14.47 138.27 14.47L138.16 14.35L138.30 14.49Q136.25 14.34 135.26 15.03L135.26 15.03L135.39 15.16Q134.26 15.70 134.49 17.49L134.33 17.33L134.35 17.36Q134.74 19.68 137.71 21.21L137.58 21.09L137.73 21.23Q138.23 21.42 142.72 23.06L142.75 23.09L142.75 23.09Q145.39 24.58 145.80 28.96L145.64 28.80L145.76 28.92Q145.72 29.03 145.80 30.29L145.83 30.32L145.77 30.26Q145.88 33.08 144.32 34.18L144.24 34.10L144.32 34.18Q142.34 35.02 138.15 35.13ZM140.49 37.54L140.55 37.60L140.56 37.61Q142.06 37.74 144.04 37.74L143.98 37.69L143.90 37.61Q146.03 37.64 147.28 37.22L147.31 37.25L147.32 37.26Q148.54 36.42 148.46 34.63L148.58 34.75L148.53 34.70Q148.51 33.72 148.13 31.67L147.99 31.53L148.17 31.71Q147.22 26.99 145.13 25.13L145.04 25.04L144.99 24.99Q144.24 23.44 142.91 22.72L142.98 22.79L137.68 20.73L137.59 20.63Q137.38 20.58 136.92 20.35L136.96 20.39L136.82 19.97L136.78 19.60L136.79 19.61Q136.50 18.06 137.65 17.45L137.65 17.46L137.73 17.54Q138.47 16.94 140.18 16.75L140.28 16.85L140.20 16.78Q141.24 16.56 142.38 17.01L142.52 17.15L142.49 17.12Q142.49 17.15 142.68 17.99L142.77 18.08L142.84 18.16Q142.97 17.95 143.47 17.72L143.48 17.73L143.49 17.74Q144.18 18.62 144.29 19.76L144.24 19.71L144.32 19.79Q144.31 19.66 147.96 17.07L148.07 17.18L147.90 17.01Q147.64 14.39 146.19 13.70L146.26 13.77L146.35 13.86Q145.66 12.48 144.21 11.95L144.30 12.04L144.17 11.91Q141.90 11.13 138.71 11.13L138.75 11.17L138.70 11.12Q133.81 11.14 131.94 11.83L131.92 11.80L132.04 11.92Q130.68 12.36 130.57 14.03L130.61 14.07L130.57 14.04Q130.52 14.56 130.94 16.76L130.91 16.74L130.91 16.74Q131.54 20.45 133.71 22.69L133.73 22.71L133.82 22.80Q134.59 24.48 136.09 25.17L136.09 25.17L136.19 25.27Q137.62 25.88 141.55 27.45L141.43 27.33L141.40 27.34L142.20 27.84L142.27 27.94L142.18 27.85Q142.39 28.33 142.43 28.67L142.31 28.55L142.36 28.60Q142.54 32.18 138.62 32.33L138.63 32.33L138.59 32.29Q137.29 32.18 136.00 31.80L136.06 31.85L136.03 31.83Q135.85 31.15 135.85 30.43L135.87 30.45L135.79 30.36Q135.71 30.02 135.75 29.75L135.80 29.81L135.90 29.91Q135.32 29.98 134.52 30.47L134.69 30.64L134.68 30.63Q134.03 29.37 134.18 28.00L134.30 28.12L134.29 28.11Q132.11 29.20 130.51 30.61L130.50 30.60L130.59 30.69Q130.60 31.46 130.68 32.49L130.74 32.55L130.77 32.58Q130.99 34.22 132.29 34.98L132.26 34.95L132.31 34.99Q133.54 36.84 136.09 37.22L136.18 37.30L136.13 37.26Q137.69 37.49 140.62 37.68Z"/><path fill="#222" d="M162.91 27.99L162.92 27.99L162.95 28.03Q165.98 27.59 169.18 27.71L169.17 27.70L169.25 27.78Q169.12 25.14 169.12 22.74L169.04 22.66L169.14 22.75Q169.04 20.18 169.23 17.63L169.34 17.75L169.36 17.76Q168.16 19.50 162.95 28.03ZM172.82 35.34L172.72 35.24L172.74 35.26Q171.08 34.98 169.29 34.90L169.41 35.02L169.37 34.98Q169.17 32.61 169.05 30.13L168.92 30.00L169.05 30.13Q163.73 29.95 159.01 31.36L159.06 31.40L159.04 31.38Q159.01 30.75 159.20 29.76L159.19 29.75L159.18 29.74Q160.97 26.58 164.55 20.30L164.54 20.29L164.56 20.30Q167.59 15.58 171.02 11.69L170.95 11.62L170.95 11.62Q171.75 11.36 173.42 11.09L173.44 11.11L173.42 11.08Q171.67 17.68 171.67 24.72L171.68 24.72L171.53 24.58Q171.55 26.09 171.63 27.57L171.77 27.71L173.00 27.76L172.93 27.69Q173.62 27.81 174.23 27.92L174.28 27.97L174.18 27.87Q174.25 28.82 174.51 30.76L174.58 30.83L174.51 30.76Q173.31 30.51 171.83 30.32L171.89 30.38L171.80 30.29Q172.01 32.29 172.70 35.22ZM174.42 27.46L174.54 27.59L174.36 27.40Q174.19 27.35 174.00 27.35L174.10 27.45L173.69 27.43L173.74 27.47Q173.66 26.02 173.66 24.61L173.68 24.63L173.56 24.51Q173.52 18.08 175.58 12.06L175.56 12.05L175.61 12.10Q174.87 12.38 173.42 12.76L173.45 12.79L173.46 12.80Q173.61 11.96 174.06 10.55L174.01 10.50L174.03 10.51Q172.89 11.05 170.84 11.28L170.68 11.12L170.82 11.26Q166.87 15.58 161.66 24.94L161.65 24.93L163.70 21.24L163.76 21.30Q163.29 22.27 163.02 22.84L163.09 22.91L158.63 31.93L158.51 31.80Q159.17 31.66 160.31 31.28L160.40 31.38L160.19 31.55L160.17 31.53Q160.05 32.21 159.75 33.47L159.78 33.50L159.83 33.55Q163.97 32.24 168.80 32.43L168.80 32.43L168.70 32.33Q168.73 33.28 168.92 35.25L168.96 35.29L168.98 35.31Q170.07 35.34 171.14 35.45L171.04 35.35L171.14 35.45Q171.34 36.18 171.60 37.55L171.44 37.39L171.58 37.53Q173.34 37.61 176.35 38.53L176.53 38.72L176.42 38.61Q175.45 36.49 174.54 33.22L174.54 33.22L175.93 33.62L175.98 33.67Q176.57 33.80 177.25 34.14L177.26 34.15L177.44 34.33Q176.46 31.63 176.30 29.96L176.48 30.14L176.38 30.03Q175.81 29.88 174.67 29.65L174.65 29.64L174.67 29.65Q174.41 28.33 174.41 27.46ZM166.43 27.32L166.40 27.29L166.40 27.28Q167.31 26.14 168.87 23.59L168.85 23.58L168.88 23.60Q168.86 24.53 168.82 25.48L168.73 25.39L168.67 25.33Q168.82 26.47 168.86 27.42L168.69 27.26L168.84 27.41Q168.17 27.27 167.60 27.27L167.59 27.26L167.71 27.38Q167.03 27.31 166.42 27.31Z"/><path d="M4 3 C117 15,117 13,188 28" stroke="#777" fill="none"/><path fill="#222" d="M90.52 35.33L90.48 35.29L90.65 35.46Q87.67 31.57 85.04 22.92L84.92 22.81L84.97 22.85Q84.38 20.78 83.58 18.65L83.39 18.46L80.53 27.25L80.53 27.25Q78.83 32.28 76.43 35.52L76.39 35.48L76.45 35.54Q75.63 35.63 73.99 35.79L74.01 35.80L73.96 35.75Q74.07 34.56 74.07 33.31L74.09 33.33L74.04 33.28Q74.04 27.26 71.30 21.13L71.37 21.21L71.25 21.09Q68.14 14.21 62.28 9.23L62.34 9.28L62.24 9.19Q64.43 9.93 66.79 10.46L66.88 10.55L66.85 10.52Q75.52 18.96 76.81 29.92L76.88 29.99L76.87 29.98Q78.52 26.68 79.97 21.32L79.85 21.20L79.90 21.25Q81.94 13.81 82.44 12.40L82.44 12.40L84.59 12.30L84.67 12.38Q85.40 14.45 86.05 16.77L85.86 16.59L87.23 21.16L87.13 21.06Q88.75 26.55 90.16 29.79L90.24 29.88L90.18 29.81Q91.78 18.13 99.70 10.78L99.78 10.86L99.82 10.90Q101.20 10.42 104.17 9.77L104.17 9.77L104.18 9.78Q98.89 14.13 95.85 20.25L95.88 20.28L95.89 20.30Q92.82 26.55 92.82 33.33L92.75 33.26L92.78 33.29Q92.74 34.35 92.82 35.50L92.82 35.50L91.79 35.49L91.67 35.38Q91.15 35.39 90.58 35.39ZM96.78 38.24L96.77 38.23L96.82 38.29Q95.51 34.65 95.63 30.77L95.60 30.74L95.69 30.83Q96.08 19.35 105.45 11.09L105.31 10.95L105.29 10.93Q104.47 11.29 102.53 11.83L102.49 11.79L102.57 11.87Q103.42 10.92 105.32 9.13L105.33 9.14L105.30 9.11Q102.76 9.99 99.83 10.49L99.68 10.34L99.77 10.44Q92.34 17.62 90.43 27.10L90.33 27.00L90.29 26.95Q89.75 25.35 86.90 13.89L86.84 13.83L86.85 13.85Q86.46 13.96 85.51 13.96L85.58 14.02L85.15 12.83L85.20 12.88Q85.07 12.33 84.84 11.84L84.83 11.82L82.03 11.92L82.04 11.93Q81.13 14.29 79.85 19.41L79.96 19.51L79.81 19.37Q78.54 24.49 77.55 26.97L77.66 27.08L77.58 27.00Q76.15 19.25 70.59 12.93L70.45 12.79L70.52 12.86Q70.03 12.79 69.08 12.60L69.08 12.60L69.00 12.52Q68.42 11.82 66.86 10.19L66.73 10.05L66.73 10.06Q63.44 9.36 61.27 8.56L61.23 8.51L61.12 8.40Q66.90 13.20 70.18 19.41L70.23 19.45L70.08 19.31Q73.65 26.04 73.65 33.04L73.64 33.03L73.57 32.96Q73.68 34.63 73.49 36.23L73.50 36.25L73.50 36.24Q73.74 36.26 74.20 36.16L74.03 35.99L74.20 36.16Q74.60 36.01 74.83 36.01L74.77 35.95L74.84 37.05L74.82 37.03Q74.71 37.38 74.79 37.91L74.93 38.06L74.80 37.92Q75.94 37.85 78.23 37.69L78.21 37.68L78.36 37.83Q81.86 32.30 84.60 22.90L84.70 23.01L84.65 22.95Q87.38 31.70 90.35 35.66L90.32 35.63L90.42 35.72Q90.88 35.73 91.72 35.84L91.67 35.80L91.74 35.87Q92.49 36.81 93.55 37.87L93.59 37.91L93.57 37.88Q94.38 37.97 96.78 38.24Z"/><path d="M18 9 C82 34,97 1,184 24" stroke="#666" fill="none"/><path fill="#333" d="M110.46 14.69L110.53 14.76L110.47 14.70Q108.43 14.76 107.48 14.91L107.47 14.90L107.58 15.01Q105.84 15.13 104.62 15.66L104.74 15.79L104.56 15.60Q101.07 17.07 100.96 21.75L101.12 21.91L101.07 21.86Q100.87 24.41 101.52 27.34L101.66 27.48L101.57 27.38Q102.42 31.40 106.04 32.58L106.07 32.61L106.03 32.57Q108.06 33.27 109.51 33.12L109.39 33.00L109.78 32.93L109.82 32.97Q110.14 33.10 110.33 33.14L110.17 32.98L110.33 33.14Q110.44 33.10 110.59 33.06L110.64 33.11L110.58 33.05Q113.19 32.76 114.56 32.19L114.59 32.22L111.00 28.67L110.98 28.65Q111.38 28.40 111.99 27.79L111.93 27.73L112.78 26.75L112.85 26.83Q114.65 28.85 116.63 30.91L116.67 30.95L116.74 31.02Q119.00 29.13 119.27 23.77L119.19 23.69L119.26 23.76Q119.39 22.89 119.39 21.98L119.28 21.87L119.39 21.98Q119.36 16.28 114.30 15.18L114.25 15.13L114.19 15.07Q113.05 14.92 110.54 14.77ZM123.18 36.70L123.13 36.65L123.29 36.81Q122.57 37.11 121.39 37.99L121.50 38.11L117.03 34.35L117.04 34.37Q114.53 35.55 110.26 35.58L110.26 35.58L110.25 35.57Q103.84 35.82 101.02 33.58L100.97 33.52L100.85 33.41Q99.23 31.78 98.77 28.82L98.70 28.75L98.59 28.63Q98.57 27.02 98.19 23.44L98.11 23.35L98.17 23.41Q98.15 22.67 98.03 20.92L97.97 20.86L98.08 20.97Q97.75 19.23 97.79 18.35L97.82 18.39L97.87 18.43Q97.99 15.40 99.75 13.84L99.69 13.78L99.68 13.77Q101.23 12.46 104.42 11.97L104.44 11.98L104.52 12.06Q106.89 11.58 109.78 11.66L109.83 11.70L109.74 11.61Q117.41 11.89 120.53 14.25L120.51 14.23L120.43 14.16Q122.55 16.24 122.28 21.15L122.33 21.20L122.45 21.31Q122.09 24.80 121.90 26.13L121.99 26.22L122.00 26.23Q121.23 30.60 118.91 32.93L119.00 33.01L118.91 32.93Q120.43 34.21 123.17 36.69ZM118.28 12.39L118.44 12.55L118.30 12.40Q116.32 11.72 109.81 11.23L109.79 11.20L109.79 11.20Q108.42 11.24 105.64 11.35L105.70 11.42L105.66 11.37Q101.38 11.55 99.13 13.53L99.17 13.56L99.19 13.58Q97.49 15.01 97.49 18.17L97.57 18.25L97.49 18.16Q97.63 19.14 97.78 20.85L97.65 20.73L97.73 20.81Q97.75 22.39 97.75 23.27L97.86 23.37L97.85 23.36Q98.02 25.13 98.40 28.71L98.31 28.61L98.30 28.61Q98.70 31.52 100.30 33.58L100.32 33.59L100.34 33.62Q100.61 34.38 101.83 35.53L101.96 35.66L101.83 35.53Q104.58 37.55 109.76 37.82L109.77 37.84L109.75 37.82Q110.16 37.88 112.56 38.00L112.52 37.95L112.51 37.94Q117.30 38.09 119.58 37.02L119.57 37.02L119.59 37.03Q120.42 37.67 125.14 41.25L125.19 41.29L125.18 41.28Q125.84 40.81 127.14 39.82L127.06 39.74L127.10 39.78Q126.15 39.02 125.35 38.34L125.41 38.40L123.76 36.94L123.78 36.81L123.89 36.92Q123.33 36.47 122.11 35.44L122.09 35.42L122.10 35.43Q124.04 32.95 124.04 28.42L123.99 28.37L123.93 28.32Q123.95 27.92 123.99 27.08L124.05 27.14L124.02 27.10Q124.00 26.22 124.00 25.80L124.16 25.96L124.14 25.94Q124.10 20.37 123.38 18.01L123.28 17.92L123.26 17.90Q122.94 16.66 122.06 15.60L122.13 15.66L122.00 15.53Q121.30 13.50 118.37 12.47ZM112.30 16.98L112.37 17.05L112.34 17.03Q116.41 16.95 118.24 18.54L118.33 18.64L118.22 18.53Q118.77 19.73 118.88 21.06L118.93 21.10L118.84 21.02Q118.94 22.30 118.87 23.67L118.86 23.66L118.86 23.66Q118.58 28.67 116.63 30.38L116.66 30.40L116.56 30.31Q115.36 29.11 112.85 26.37L112.88 26.40L112.80 26.32Q112.06 27.10 110.50 28.66L110.47 28.63L110.54 28.71Q111.04 29.25 112.19 30.43L112.20 30.44L112.06 30.41L112.21 30.57Q112.76 31.08 113.79 32.15L113.80 32.15L113.66 32.01Q112.68 32.29 110.36 32.60L110.42 32.66L109.89 32.66L109.45 32.64L109.50 32.73L109.52 32.74Q106.05 32.74 104.07 31.10L104.03 31.07L103.92 30.95Q103.05 29.02 103.09 25.89L103.05 25.86L103.07 25.88Q103.11 17.05 112.29 16.97Z"/></svg>